<svg width="117" height="106" viewBox="0 0 117 106" fill="none" xmlns="http://www.w3.org/2000/svg">
<g id="Group 1">
<path id="Vector" d="M99.0059 0.484009H0.495117V88.4114H99.0059V0.484009Z" fill="#F2CBCD"/>
<path id="Vector_2" d="M103.91 5.1864H8.39941V90.1138H103.91V5.1864Z" stroke="black" stroke-width="3"/>
<path id="Vector_3" d="M24.9258 4.8569L43.3965 5.0774L42.9496 46.9274L41.6564 44.4704L40.311 46.8959L39.0177 44.4389L37.3424 46.8605L35.7119 45.097L34.0441 46.8211L32.4135 45.0577L29.4227 47.1147L27.8033 44.305L24.4789 46.7069L24.9258 4.8569Z" fill="white"/>
<path id="Vector_4" d="M40.0359 40.8465L39.7228 40.2517L38.8257 41.8689L38.3774 42.6772L37.9464 41.8584L37.1773 40.3973L36.239 41.7537L35.2729 43.1501L34.4897 42.303L33.7714 41.5262L33.0367 42.2857L32.1036 43.2503L31.1913 42.2636L30.6031 41.6275L29.8901 42.1179L27.7915 43.5613L26.7135 41.6909L26.1594 40.7295L25.261 41.3786L23.544 42.6191L23.959 3.7532L40.4299 3.9498L40.0359 40.8465Z" stroke="#5F0B0E" stroke-width="2"/>
<path id="Vector_5" d="M78.0746 45.6505L57.5508 57.9635L78.0746 76.907V66.4879H112.709V55.122H78.0746V45.6505Z" fill="#E52E34"/>
<path id="Vector_6" d="M77.0189 42.484L56.4951 54.797L77.0189 73.74V63.3214H111.653V51.9555H77.0189V42.484Z" stroke="black" stroke-width="2"/>
<path id="Vector_7" d="M94.981 100.673L115.505 88.36L94.981 69.417V79.835H60.3471V91.201H94.981V100.673Z" fill="#E52E34"/>
<path id="Vector_8" d="M94.317 103.516L114.841 91.203L94.317 72.26V82.679H59.6835V94.044H94.317V103.516Z" stroke="black" stroke-width="2"/>
</g>
</svg>
