<svg width="118" height="103" viewBox="0 0 118 103" fill="none" xmlns="http://www.w3.org/2000/svg">
<g id="Group 1">
<path id="Vector" d="M99.1358 0.860596H0.625V88.788H99.1358V0.860596Z" fill="#F2CBCD"/>
<path id="Vector_2" d="M104.04 5.5629H8.52966V90.4903H104.04V5.5629Z" stroke="black" stroke-width="3"/>
<path id="Vector_3" d="M25.0558 5.2336L43.5265 5.4541L43.0796 47.3041L41.7864 44.8471L40.441 47.2726L39.1477 44.8156L37.4724 47.2371L35.8419 45.4737L34.1741 47.1977L32.5436 45.4343L29.5527 47.4914L27.9333 44.6817L24.6089 47.0836L25.0558 5.2336Z" fill="white"/>
<path id="Vector_4" d="M40.1657 41.2232L39.8526 40.6283L38.9556 42.2455L38.5072 43.0538L38.0763 42.235L37.3072 40.774L36.3689 42.1303L35.4028 43.5268L34.6195 42.6797L33.9013 41.9029L33.1666 42.6623L32.2335 43.6269L31.3212 42.6403L30.733 42.0041L30.02 42.4945L27.9214 43.9379L26.8434 42.0675L26.2893 41.1061L25.3909 41.7552L23.6738 42.9958L24.0889 4.1299L40.5597 4.3265L40.1657 41.2232Z" stroke="#5F0B0E" stroke-width="2"/>
<path id="Vector_5" d="M83.528 84.184C85.778 85.815 88.568 86.312 90.087 86.259L90.189 86.256H90.29C96.48 86.256 101.498 81.238 101.498 75.048C101.32 71.312 98.723 63.8397 89.756 63.8397V72.913L70.0084 54.7664L90.29 42.4908V52.0978C102.965 52.0978 113.24 62.3728 113.24 75.048C113.24 87.69 103.017 97.945 90.387 97.998C86.748 98.101 81.325 97.089 76.6369 93.691C71.5898 90.033 67.8735 83.934 67.8735 75.048H79.6154C79.6154 80.251 81.592 82.781 83.528 84.184Z" fill="#E52E34"/>
<path id="Vector_6" d="M92.324 87.391H92.306H92.289L92.188 87.395C90.85 87.441 88.289 86.988 86.25 85.51C84.579 84.298 82.75 82.072 82.75 77.183V76.183H81.75H70.0084H69.0084V77.183C69.0084 86.383 72.8727 92.785 78.1849 96.636C83.077 100.182 88.721 101.238 92.539 101.132C105.713 101.071 116.375 90.372 116.375 77.183C116.375 64.2904 106.188 53.7774 93.425 53.2532V44.6257V42.8515L91.907 43.7702L71.6255 56.0458L70.4854 56.7359L71.4667 57.6376L91.214 75.784L92.891 77.325V75.048V67.0089C96.475 67.2605 98.787 68.862 100.264 70.786C101.901 72.919 102.547 75.499 102.633 77.207C102.62 82.833 98.055 87.391 92.425 87.391H92.324Z" stroke="black" stroke-width="2"/>
</g>
</svg>
