<svg width="112" height="114" viewBox="0 0 112 114" fill="none" xmlns="http://www.w3.org/2000/svg">
<g id="Group 5">
<g id="Group 4">
<path id="Vector" d="M105.71 48H54.625V93.597H105.71V48Z" fill="#F2CBCD"/>
<path id="Vector_2" d="M107.527 50.903H59.4421V93.5H107.527V50.903Z" stroke="black" stroke-width="3"/>
<path id="Vector_3" d="M67.2941 50.2677L76.8726 50.382L76.6409 72.0844L75.9702 70.8103L75.2725 72.0681L74.6018 70.794L73.7331 72.0497L72.8875 71.1352L72.0227 72.0293L71.1771 71.1148L69.6261 72.1816L68.7863 70.7245L67.0624 71.9701L67.2941 50.2677Z" fill="white"/>
<path id="Vector_4" d="M75.0963 68.7923L74.9682 68.549L74.4717 69.4442L74.2705 69.8068L74.0772 69.4395L73.6515 68.6307L73.1321 69.3815L72.6559 70.0699L72.2793 69.6626L71.8817 69.2326L71.4751 69.653L71.0169 70.1267L70.5689 69.6422L70.2433 69.29L69.8486 69.5615L68.7915 70.2885L68.2514 69.3515L67.9447 68.8193L67.4474 69.1786L66.6132 69.7813L66.8273 49.7307L75.2988 49.8319L75.0963 68.7923Z" stroke="#5F0B0E" stroke-width="1.1071"/>
</g>
<g id="Group 3">
<path id="Vector_5" d="M51.7103 48H0.625V93.597H51.7103V48Z" fill="#F2CBCD"/>
<path id="Vector_6" d="M53.5274 50.903H5.44214V93.5H53.5274V50.903Z" stroke="black" stroke-width="3"/>
<path id="Vector_7" d="M13.2941 50.2677L22.8726 50.382L22.6409 72.0844L21.9702 70.8103L21.2725 72.0681L20.6018 70.794L19.7331 72.0497L18.8875 71.1352L18.0227 72.0293L17.1771 71.1148L15.6261 72.1816L14.7863 70.7245L13.0624 71.9701L13.2941 50.2677Z" fill="white"/>
<path id="Vector_8" d="M21.0963 68.7923L20.9682 68.549L20.4717 69.4442L20.2705 69.8068L20.0772 69.4395L19.6515 68.6307L19.1321 69.3815L18.6559 70.0699L18.2793 69.6626L17.8817 69.2326L17.4751 69.653L17.0169 70.1267L16.5689 69.6422L16.2433 69.29L15.8486 69.5615L14.7915 70.2885L14.2514 69.3515L13.9447 68.8193L13.4474 69.1786L12.6132 69.7813L12.8273 49.7307L21.2988 49.8319L21.0963 68.7923Z" stroke="#5F0B0E" stroke-width="1.1071"/>
</g>
<g id="Group 2">
<path id="Vector_9" d="M105.71 0H54.625V45.597H105.71V0Z" fill="#F2CBCD"/>
<path id="Vector_10" d="M107.527 2.90302H59.4421V45.5H107.527V2.90302Z" stroke="black" stroke-width="3"/>
<path id="Vector_11" d="M67.2941 2.2677L76.8726 2.382L76.6409 24.0844L75.9702 22.8103L75.2725 24.0681L74.6018 22.794L73.7331 24.0497L72.8875 23.1352L72.0227 24.0293L71.1771 23.1148L69.6261 24.1816L68.7863 22.7245L67.0624 23.9701L67.2941 2.2677Z" fill="white"/>
<path id="Vector_12" d="M75.0963 20.7923L74.9682 20.549L74.4717 21.4442L74.2705 21.8068L74.0772 21.4395L73.6515 20.6307L73.1321 21.3815L72.6559 22.0699L72.2793 21.6626L71.8817 21.2326L71.4751 21.653L71.0169 22.1267L70.5689 21.6422L70.2433 21.29L69.8486 21.5615L68.7915 22.2885L68.2514 21.3515L67.9447 20.8193L67.4474 21.1786L66.6132 21.7813L66.8273 1.73071L75.2988 1.83191L75.0963 20.7923Z" stroke="#5F0B0E" stroke-width="1.1071"/>
</g>
<g id="Group 1">
<path id="Vector_13" d="M51.7103 0H0.625V45.597H51.7103V0Z" fill="#F2CBCD"/>
<path id="Vector_14" d="M53.5274 2.90302H5.44214V45.5H53.5274V2.90302Z" stroke="black" stroke-width="3"/>
<path id="Vector_15" d="M13.2941 2.2677L22.8726 2.382L22.6409 24.0844L21.9702 22.8103L21.2725 24.0681L20.6018 22.794L19.7331 24.0497L18.8875 23.1352L18.0227 24.0293L17.1771 23.1148L15.6261 24.1816L14.7863 22.7245L13.0624 23.9701L13.2941 2.2677Z" fill="white"/>
<path id="Vector_16" d="M12.2797 1.17059L12.048 22.873L13.7719 21.6274L14.6117 23.0845L16.1627 22.0177L17.0083 22.9322L17.8731 22.0381L18.7187 22.9526L19.5874 21.6969L20.2581 22.971L20.9558 21.7132L21.6265 22.9873L21.8582 1.28489" stroke="#5F0B0E"/>
</g>
<path id="Vector_17" d="M111.062 101H6.0625V106H111.062V101Z" fill="#E52E34"/>
<path id="Vector_18" d="M22.125 108H6.125V114H22.125V108Z" fill="#969696"/>
<path id="Vector_19" d="M69.125 108H53.125V114H69.125V108Z" fill="#969696"/>
<path id="Vector_20" d="M111.375 108H96.375V114H111.375V108Z" fill="#969696"/>
<path id="Vector_21" d="M109.625 99H2.625V107H109.625V99Z" stroke="black" stroke-width="2"/>
<path id="Vector_22" d="M19.625 107H2.625V112H19.625V107Z" stroke="black" stroke-width="2"/>
<path id="Vector_23" d="M67.625 107H50.625V112H67.625V107Z" stroke="black" stroke-width="2"/>
<path id="Vector_24" d="M109.625 107H92.625V112H109.625V107Z" stroke="black" stroke-width="2"/>
</g>
</svg>
